<svg width="44" height="18" fill="none" xmlns="http://www.w3.org/2000/svg"><path d="M.107 14h8.847v-2.864H3.661V.91H.107V14zm15.065.179c3.196 0 5.088-2.046 5.088-5.063s-1.892-5.062-5.088-5.062-5.088 2.045-5.088 5.062c0 3.018 1.892 5.063 5.088 5.063zm.025-2.608c-.946 0-1.508-.94-1.508-2.48s.562-2.48 1.508-2.48c.895 0 1.458.94 1.458 2.48s-.563 2.48-1.458 2.48zm11.225 6.315c3.106 0 5.165-1.419 5.165-3.912V4.182h-3.529v1.713h-.076c-.384-.997-1.304-1.841-2.762-1.841-1.943 0-3.835 1.483-3.835 5.037 0 3.4 1.764 4.781 3.86 4.781 1.33 0 2.379-.562 2.762-1.56h.102v1.662c0 1.157-.67 1.534-1.585 1.534-.812 0-1.406-.242-1.508-.869h-3.4c.133 1.892 1.853 3.247 4.806 3.247zm.128-6.52c-.972 0-1.534-.818-1.534-2.275 0-1.457.562-2.327 1.534-2.327.971 0 1.56.87 1.56 2.327 0 1.432-.589 2.276-1.56 2.276zm11.56 2.814c3.196 0 5.088-2.046 5.088-5.063s-1.892-5.062-5.088-5.062-5.088 2.045-5.088 5.062c0 3.018 1.892 5.063 5.088 5.063zm.026-2.608c-.946 0-1.509-.94-1.509-2.48s.563-2.48 1.509-2.48c.895 0 1.457.94 1.457 2.48s-.562 2.48-1.457 2.48z" fill="#fff"/></svg>