<svg width="109" height="54" fill="none" xmlns="http://www.w3.org/2000/svg"><path d="M0 42.986h1.74l2.173 8.69h1.594l2.102-8.69h1.666L6.74 53.297H2.61L0 42.987zm10.796 10.311v-10.31h1.666v10.31h-1.666zm3.984 0v-10.31h3.405c1.575 0 2.875.495 3.899 1.487 1.024.992 1.536 2.214 1.536 3.668 0 1.453-.512 2.676-1.536 3.667-1.024.992-2.324 1.488-3.899 1.488H14.78zm1.666-1.62h1.74c1.11 0 2.004-.33 2.68-.987.677-.658 1.015-1.507 1.015-2.548 0-1.041-.338-1.89-1.015-2.549-.676-.658-1.57-.987-2.68-.987h-1.74v7.07zm9.054 1.62v-10.31h7.319v1.62h-5.652v2.65h4.565v1.621h-4.565v2.799h5.652v1.62H25.5zm10.251-1.267c-1.033-1.04-1.55-2.337-1.55-3.888 0-1.552.517-2.848 1.55-3.889 1.034-1.04 2.329-1.561 3.884-1.561 1.556 0 2.85.52 3.884 1.561 1.034 1.04 1.551 2.337 1.551 3.889 0 1.551-.517 2.847-1.55 3.888-1.035 1.041-2.33 1.562-3.885 1.562-1.555 0-2.85-.52-3.884-1.562zm1.218-6.657c-.686.707-1.03 1.63-1.03 2.769 0 1.139.344 2.062 1.03 2.769.686.707 1.575 1.06 2.666 1.06 1.082 0 1.966-.353 2.652-1.06.696-.707 1.044-1.63 1.044-2.77 0-1.138-.348-2.061-1.044-2.768-.686-.708-1.57-1.061-2.652-1.061-1.091 0-1.98.353-2.666 1.06zm8.906-2.387h1.74l2.173 8.69h1.594l2.102-8.69h1.666l-2.536 10.311h-4.13l-2.609-10.31zM56.67 53.297v-10.31h7.32v1.62h-5.653v2.65h4.566v1.621h-4.566v2.799h5.652v1.62h-7.318zm9.136 0v-10.31h4.42c1.198 0 2.15.313 2.855.942.706.628 1.058 1.419 1.058 2.371a3.12 3.12 0 01-.695 2.004c-.454.57-1.092.957-1.913 1.163l2.536 3.83H72.11l-2.39-3.682h-2.247v3.682h-1.667zm1.667-5.303h2.753c1.45 0 2.174-.564 2.174-1.694 0-1.129-.724-1.694-2.174-1.694h-2.753v3.388zm12.474 2.21h1.739c.067.343.207.653.42.928.464.609 1.169.913 2.116.913.763 0 1.328-.137 1.695-.412.368-.285.551-.663.551-1.135 0-.373-.169-.672-.507-.898-.329-.226-.802-.422-1.42-.59-1.208-.313-2.02-.574-2.435-.78-1.15-.54-1.725-1.355-1.725-2.445 0-.835.348-1.556 1.044-2.165.695-.619 1.604-.928 2.724-.928 1.488 0 2.594.505 3.32 1.517.308.432.53.933.666 1.502h-1.74a1.873 1.873 0 00-.362-.736c-.405-.491-1.034-.737-1.884-.737-.657 0-1.16.138-1.507.413a1.292 1.292 0 00-.522 1.06c0 .648.643 1.15 1.928 1.503.106.03.31.088.609.176.3.079.512.143.637.192.136.04.338.108.609.206.28.089.488.172.623.25.135.08.31.182.522.31.212.118.372.245.478.383.116.127.232.275.348.442.126.167.213.358.26.574.05.206.073.432.073.678 0 .884-.362 1.635-1.087 2.253-.715.61-1.68.914-2.898.914-1.623 0-2.817-.565-3.58-1.694a4.07 4.07 0 01-.695-1.694zm10.065-.884v-6.334h1.667v6.334c0 .844.217 1.498.652 1.96.435.46 1.038.691 1.811.691.773 0 1.377-.23 1.812-.692.435-.461.652-1.115.652-1.959v-6.334h1.667v6.334c0 1.326-.372 2.371-1.116 3.138-.734.756-1.74 1.134-3.015 1.134-1.275 0-2.285-.378-3.029-1.134-.734-.767-1.101-1.812-1.101-3.138zm10.51 3.977v-10.31h5c.956 0 1.715.255 2.275.765.56.501.841 1.13.841 1.886s-.256 1.335-.768 1.738a2.52 2.52 0 01-.754.397v.074c.357.079.671.211.942.398.628.461.942 1.163.942 2.106 0 .874-.309 1.586-.928 2.136-.618.54-1.492.81-2.623.81h-4.927zm1.667-6.113h3.26c.464 0 .822-.118 1.073-.353.251-.236.377-.565.377-.987 0-.373-.126-.673-.377-.899-.251-.226-.609-.339-1.073-.339h-3.26v2.578zm0 4.493h3.188c1.256 0 1.884-.491 1.884-1.473 0-.982-.628-1.473-1.884-1.473h-3.188v2.946z" fill="#fff"/><path fill-rule="evenodd" clip-rule="evenodd" d="M39.058 1.34c0-1.056 1.162-1.695 2.05-1.129l11.039 7.041L61.849.305c.883-.632 2.11 0 2.11 1.088v6.043h-1.78V2.26l-9.487 6.793a.97.97 0 01-.03.02l-11.09 7.277 11.073 7.266 9.534 5.656V12.784h1.78v17.27a1.334 1.334 0 01-2.014 1.15l-9.753-5.785-11.084 7.07c-.888.566-2.05-.073-2.05-1.128V1.339zm11.477 23.022L40.837 18v12.55l9.698-6.187zm-9.698-9.66V2.151l9.698 6.186-9.698 6.363zm28.02-8.555A1.334 1.334 0 0170.85 7.31v18.082a1.334 1.334 0 01-1.99 1.164l-4.45-2.521.875-1.553 3.786 2.146V8.075L55.213 15.96l6.566 4.325-.977 1.49-7.174-4.725a1.339 1.339 0 01.075-2.28l15.155-8.623z" fill="#F2994A"/></svg>